<svg width="400" height="233" viewBox="0 0 400 233" fill="none" xmlns="http://www.w3.org/2000/svg">
<g clip-path="url(#clip0_394_48127)">
<path d="M24.5697 193.982L40.0242 231.854H32.0302L28.2411 222.476H12.1174L8.44596 231.854H0.876953L16.2049 193.982H24.5606H24.5697ZM14.4053 216.707H25.9442L20.229 202.518H19.9849L14.3963 216.707H14.4053Z" fill="white"/>
<path d="M49.6915 193.982V225.605H69.7128V231.854H42.1768V193.982H49.6915Z" fill="white"/>
<path d="M80.4739 231.854H73.0225V193.982H88.1153C97.7913 193.982 103.326 198.494 103.326 206.371C103.326 214.247 97.7913 218.814 88.1153 218.814H80.483V231.863L80.4739 231.854ZM87.8711 212.674C93.523 212.674 95.9827 210.513 95.9827 206.425C95.9827 202.338 93.5139 200.05 87.8711 200.05H80.4739V212.674H87.8711Z" fill="white"/>
<path d="M113.472 193.982V231.854H105.957V193.982H113.472Z" fill="white"/>
<path d="M144.009 219.23V193.982H150.982V231.854H144.968L125.607 205.159V231.854H118.635V193.982H126.086L144 219.23H144.009Z" fill="white"/>
<path d="M184.414 231.854H156.101V193.982H183.872V200.231H163.489V209.427H179.477V215.622H163.489V225.605H184.414V231.854Z" fill="white"/>
<path d="M196.74 228.535L197.581 219.456H198.819C200.013 227.287 203.63 230.073 208.884 230.073C214.138 230.073 217.466 227.893 217.466 222.684C217.466 218.118 214.193 216.038 208.586 212.918C203.079 209.843 200.7 207.067 200.7 202.5C200.7 196.65 205.168 192.68 212.104 192.68C216.173 192.68 219.989 193.774 222.765 195.809L221.771 203.694H220.631C219.835 198.042 216.716 194.968 211.706 194.968C207.04 194.968 204.318 197.644 204.318 201.759C204.318 205.629 206.651 207.366 211.208 209.843C217.403 213.216 221.327 216.291 221.327 221.997C221.327 228.843 215.775 232.36 208.532 232.36C203.621 232.36 199.308 230.778 196.73 228.544L196.74 228.535Z" fill="white"/>
<path d="M270.974 193.177L270.775 194.814C267.104 194.959 264.572 195.456 264.183 198.928L260.963 225.361C260.81 226.401 260.81 226.898 260.81 227.143C260.81 229.774 262.989 230.073 266.416 230.217L266.217 231.854H250.049L250.248 230.217C253.919 230.064 256.451 229.575 256.84 226.103L258.377 213.307H236.113L234.675 225.361C234.531 226.401 234.531 226.898 234.531 227.143C234.531 229.774 236.71 230.073 240.137 230.217L239.938 231.854H223.77L223.968 230.217C227.64 230.064 230.172 229.575 230.561 226.103L233.78 199.67C233.934 198.63 233.934 198.133 233.934 197.888C233.934 195.257 231.755 194.959 228.327 194.814L228.526 193.177H244.695L244.496 194.814C240.825 194.959 238.293 195.456 237.904 198.928L236.421 211.082H258.685L260.077 199.679C260.231 198.639 260.231 198.142 260.231 197.898C260.231 195.266 258.052 194.968 254.624 194.823L254.823 193.186H270.992L270.974 193.177Z" fill="white"/>
<path d="M268.84 231.854L269.039 230.217C272.71 230.064 275.242 229.575 275.631 226.103L278.85 199.67C279.004 198.63 279.004 198.133 279.004 197.888C279.004 195.257 276.825 194.959 273.398 194.814L273.596 193.177H304.786L303.845 201.958H302.851C301.359 197.047 299.975 195.365 295.463 195.365H283.408L281.473 211.082H292.533C295.01 211.082 296.204 209.201 297.199 205.873H298.537L297 218.416H295.661C295.463 215.097 294.667 213.262 292.189 213.262H281.229L279.89 224.077C279.737 225.415 279.691 226.256 279.691 227.007C279.691 229.042 281.229 229.684 285.244 229.684H291.646C296.9 229.684 297.895 228.345 301.91 222.44H303.203L300.328 231.863H268.84V231.854Z" fill="white"/>
<path d="M315.954 224.068C315.8 225.406 315.755 226.247 315.755 226.998C315.755 229.033 317.392 229.675 320.367 229.675H326.661C331.273 229.675 333.308 227.143 337.024 221.69H338.218L335.143 231.854H304.895L305.093 230.217C308.765 230.064 311.297 229.575 311.686 226.103L314.905 199.67C315.059 198.63 315.059 198.133 315.059 197.888C315.059 195.257 312.88 194.959 309.452 194.814L309.651 193.177H325.82L325.621 194.814C321.95 194.959 319.418 195.456 319.029 198.928L315.954 224.068Z" fill="white"/>
<path d="M349.277 224.068C349.124 225.406 349.078 226.247 349.078 226.998C349.078 229.033 350.715 229.675 353.69 229.675H359.984C364.596 229.675 366.631 227.143 370.348 221.69H371.541L368.467 231.854H338.218L338.417 230.217C342.088 230.064 344.62 229.575 345.009 226.103L348.228 199.67C348.382 198.63 348.382 198.133 348.382 197.888C348.382 195.257 346.203 194.959 342.775 194.814L342.974 193.177H359.143L358.944 194.814C355.273 194.959 352.741 195.456 352.352 198.928L349.277 224.068Z" fill="white"/>
<path d="M373.576 228.535L374.417 219.456H375.656C376.85 227.287 380.467 230.073 385.721 230.073C390.975 230.073 394.303 227.893 394.303 222.684C394.303 218.118 391.029 216.038 385.423 212.918C379.916 209.843 377.537 207.067 377.537 202.5C377.537 196.65 382.005 192.68 388.941 192.68C393.01 192.68 396.826 193.774 399.602 195.809L398.608 203.694H397.468C396.672 198.042 393.552 194.968 388.543 194.968C383.876 194.968 381.154 197.644 381.154 201.759C381.154 205.629 383.488 207.366 388.045 209.843C394.24 213.216 398.164 216.291 398.164 221.997C398.164 228.843 392.612 232.36 385.369 232.36C380.458 232.36 376.145 230.778 373.567 228.544L373.576 228.535Z" fill="white"/>
<path d="M74.5055 170.986L32.8804 36.9317H31.7953V170.986H0.452148V0.714417H53.6975L90.9909 124.495H91.8048L127.208 0.714417H179.368V170.986H145.312V36.9317H144.227L103.416 170.986H74.4964H74.5055Z" stroke="white" stroke-miterlimit="10"/>
<path d="M250.681 0.678223V145.882C250.681 160.297 267.456 161.373 293.274 162.874V170.615H189.804V162.874C215.622 161.364 232.396 160.288 232.396 145.882V27.3551H189.804V22.6256L202.066 20.9075C227.016 17.6791 234.766 16.603 248.321 0.687266H250.69L250.681 0.678223Z" stroke="white" stroke-miterlimit="10"/>
<path d="M399.548 86.7316C399.548 132.119 378.894 172.776 336.301 172.776C293.708 172.776 272.837 132.119 272.837 86.7316C272.837 41.3447 293.708 0.678223 336.301 0.678223C378.894 0.678223 399.548 41.3357 399.548 86.7226V86.7316ZM292.198 86.7316C292.198 121.366 302.308 163.1 336.301 163.1C370.294 163.1 380.187 121.366 380.187 86.7316C380.187 52.0969 370.077 10.3633 336.301 10.3633C302.525 10.3633 292.198 52.0969 292.198 86.7316Z" stroke="white" stroke-miterlimit="10"/>
<path d="M386.327 10.517L386.39 10.0197C386.445 10.0197 386.499 10.0197 386.544 10.0197C387.15 10.0197 387.222 9.77551 387.322 9.15154L387.864 4.90132C387.892 4.71142 387.91 4.55769 387.91 4.42204C387.91 3.96989 387.837 3.7619 387.159 3.75286L387.222 3.25549L390.487 3.30071C392.169 3.30071 393.055 3.91563 393.055 5.08218C393.055 6.38438 391.852 7.00835 390.822 7.13495H390.74L392.06 8.93451C392.603 9.64891 392.92 10.0287 393.39 10.0558L393.363 10.517H391.961C391.653 10.2277 391.274 9.88403 390.659 8.98877L389.519 7.29772L388.796 7.27964L388.579 8.69939C388.543 8.93451 388.507 9.18772 388.507 9.35953C388.507 9.80264 388.642 10.0468 389.329 10.0558L389.266 10.5532L386.336 10.517H386.327ZM388.805 6.79132H389.791C391.147 6.79132 391.798 6.23969 391.798 5.09123C391.798 4.30448 391.292 3.90659 390.306 3.90659H389.203L388.814 6.79132H388.805Z" fill="white"/>
<path d="M389.736 0.379822C386.137 0.379822 383.198 3.40019 383.198 7.11687C383.198 10.8336 386.191 13.7725 389.736 13.7725C393.281 13.7725 396.356 10.7883 396.356 7.11687C396.356 3.44541 393.39 0.379822 389.736 0.379822Z" stroke="white" stroke-width="0.84" stroke-miterlimit="10"/>
</g>
<defs>
<clipPath id="clip0_394_48127">
<rect width="400" height="232.351" fill="white"/>
</clipPath>
</defs>
</svg>